<svg width="551.534375px" height="121.39999999999999px" xmlns="http://www.w3.org/2000/svg" viewBox="-25.767187499999977 14.300000000000004 551.534375 121.39999999999999" style="background: rgba(0, 0, 0, 0);" preserveAspectRatio="xMidYMid"><defs><linearGradient id="editing-rainbow-gradient" x1="0" x2="1" y1="0.5" y2="0.5" gradientUnits="objectBoundingBox"><stop offset="0.00" stop-color="#f00"></stop><stop offset="0.17" stop-color="#f90"></stop><stop offset="0.34" stop-color="#ff4"></stop><stop offset="0.51" stop-color="#9f0"></stop><stop offset="0.68" stop-color="#09f"></stop><stop offset="0.85" stop-color="#00f"></stop><stop offset="1.00" stop-color="#90f"></stop></linearGradient><filter id="editing-rainbow" x="-100%" y="-100%" width="300%" height="300%"><feMorphology operator="dilate" radius="1,2" in="SourceGraphic" result="dilate"></feMorphology><feColorMatrix in="dilate" result="color" type="matrix" values="0.7 0 0 0 0  0 0.7 0 0 0  0 0 0.7 0 0  0 0 0 1 0"></feColorMatrix><feOffset dy="2" result="offset"></feOffset><feGaussianBlur stdDeviation="3"></feGaussianBlur><feOffset dy="3"></feOffset><feColorMatrix result="blur" type="matrix" values="0.7 0 0 0 0  0 0.7 0 0 0  0 0 0.7 0 0  0 0 0 1 0"></feColorMatrix><feMerge><feMergeNode in="blur"></feMergeNode><feMergeNode in="offset"></feMergeNode><feMergeNode in="SourceGraphic"></feMergeNode></feMerge></filter></defs><g filter="url(#editing-rainbow)"><g transform="translate(55.37499934434891, 104.44000053405762)"><path d="M7.68 0L0.64 0L8.32-42.24L22.08-42.24L32.06-13.18L37.38-42.24L44.48-42.18L36.67 0L22.02 0L12.80-27.97L7.68 0ZM60.03 1.28L60.03 1.28L60.03 1.28Q45.95 1.28 45.95-11.97L45.95-11.97L45.95-11.97Q45.95-21.38 51.14-27.46L51.14-27.46L51.14-27.46Q56.64-33.92 66.18-33.92L66.18-33.92L66.18-33.92Q73.09-33.92 76.61-30.72L76.61-30.72L76.61-30.72Q80.13-27.52 80.13-20.80L80.13-20.80L80.13-20.80Q80.13-10.56 74.62-4.61L74.62-4.61L74.62-4.61Q69.25 1.28 60.03 1.28ZM61.70-26.56L61.70-26.56L61.70-26.56Q60.93-24.83 60.32-22.24L60.32-22.24L60.32-22.24Q59.71-19.65 58.94-15.55L58.94-15.55L58.94-15.55Q58.18-11.46 58.18-6.40L58.18-6.40L58.18-6.40Q58.18-4.74 58.72-3.65L58.72-3.65L58.72-3.65Q59.26-2.56 60.74-2.56L60.74-2.56L60.74-2.56Q62.21-2.56 63.14-3.26L63.14-3.26L63.14-3.26Q64.06-3.97 64.77-5.63L64.77-5.63L64.77-5.63Q66.05-8.58 67.07-14.05L67.07-14.05L67.07-14.05Q68.10-19.52 68.19-21.89L68.19-21.89L68.19-21.89Q68.29-24.26 68.29-26.02L68.29-26.02L68.29-26.02Q68.29-27.78 67.78-28.93L67.78-28.93L67.78-28.93Q67.26-30.08 65.82-30.08L65.82-30.08L65.82-30.08Q64.38-30.08 63.42-29.18L63.42-29.18L63.42-29.18Q62.46-28.29 61.70-26.56ZM107.14-31.55L107.14-31.55L107.14-31.55Q109.25-33.92 112.90-33.92L112.90-33.92L112.90-33.92Q115.14-33.92 116.86-32.70L116.86-32.70L116.86-32.70Q118.59-31.49 118.59-29.22L118.59-29.22L118.59-29.22Q118.59-26.94 117.89-24.51L117.89-24.51L117.89-24.51Q117.18-22.08 116.10-19.58L116.10-19.58L116.10-19.58Q113.92-14.72 110.91-10.69L110.91-10.69L110.91-10.69Q106.69-4.86 102.62-1.79L102.62-1.79L102.62-1.79Q98.56 1.28 94.14 1.28L94.14 1.28L94.14 1.28Q90.56 1.28 88.38 0.45L88.38 0.45L88.38 0.45Q88-12.99 87.52-17.79L87.52-17.79L87.52-17.79Q87.04-22.59 86.66-25.22L86.66-25.22L86.66-25.22Q86.02-30.34 84.10-31.55L84.10-31.55L84.10-31.55Q85.57-32.83 87.01-33.38L87.01-33.38L87.01-33.38Q88.45-33.92 91.42-33.92L91.42-33.92L91.42-33.92Q94.40-33.92 96.51-31.58L96.51-31.58L96.51-31.58Q98.62-29.25 99.04-25.12L99.04-25.12L99.04-25.12Q99.46-20.99 99.46-16L99.46-16L99.46-16Q99.46-11.01 99.07-4.99L99.07-4.99L99.07-4.99Q101.06-6.40 103.17-10.69L103.17-10.69L103.17-10.69Q106.05-16.64 107.07-23.81L107.07-23.81L107.07-23.81Q107.39-25.98 107.39-28.29L107.39-28.29L107.39-28.29Q107.39-30.59 107.14-31.55ZM134.27 1.28L134.27 1.28L134.27 1.28Q120.19 1.28 120.19-11.97L120.19-11.97L120.19-11.97Q120.19-21.38 125.38-27.46L125.38-27.46L125.38-27.46Q130.88-33.92 140.42-33.92L140.42-33.92L140.42-33.92Q147.33-33.92 150.85-30.72L150.85-30.72L150.85-30.72Q154.37-27.52 154.37-20.80L154.37-20.80L154.37-20.80Q154.37-10.56 148.86-4.61L148.86-4.61L148.86-4.61Q143.49 1.28 134.27 1.28ZM135.94-26.56L135.94-26.56L135.94-26.56Q135.17-24.83 134.56-22.24L134.56-22.24L134.56-22.24Q133.95-19.65 133.18-15.55L133.18-15.55L133.18-15.55Q132.42-11.46 132.42-6.40L132.42-6.40L132.42-6.40Q132.42-4.74 132.96-3.65L132.96-3.65L132.96-3.65Q133.50-2.56 134.98-2.56L134.98-2.56L134.98-2.56Q136.45-2.56 137.38-3.26L137.38-3.26L137.38-3.26Q138.30-3.97 139.01-5.63L139.01-5.63L139.01-5.63Q140.29-8.58 141.31-14.05L141.31-14.05L141.31-14.05Q142.34-19.52 142.43-21.89L142.43-21.89L142.43-21.89Q142.53-24.26 142.53-26.02L142.53-26.02L142.53-26.02Q142.53-27.78 142.02-28.93L142.02-28.93L142.02-28.93Q141.50-30.08 140.06-30.08L140.06-30.08L140.06-30.08Q138.62-30.08 137.66-29.18L137.66-29.18L137.66-29.18Q136.70-28.29 135.94-26.56ZM176.45-31.17L176.45-31.17L176.45-31.17Q174.27-32.83 174.27-36.38L174.27-36.38L174.27-36.38Q174.27-39.94 176.61-41.79L176.61-41.79L176.61-41.79Q178.94-43.65 182.98-43.65L182.98-43.65L182.98-43.65Q185.54-43.65 191.62-42.75L191.62-42.75L195.97-42.11L195.97-42.11Q198.14-41.86 200.42-41.86L200.42-41.86L200.42-41.86Q202.69-41.86 204.22-42.82L204.22-42.82L204.22-42.82Q206.53-40.77 206.53-37.82L206.53-37.82L206.53-37.82Q206.53-34.88 203.90-32.77L203.90-32.77L203.90-32.77Q201.22-30.53 197.76-30.53L197.76-30.53L197.76-30.53Q196.10-30.53 193.41-30.98L193.41-30.98L193.41-30.98Q190.27-21.12 190.27-14.27L190.27-14.27L190.27-14.27Q190.27-7.42 193.73-3.84L193.73-3.84L193.73-3.84Q192.13-0.96 189.76 0.16L189.76 0.16L189.76 0.16Q187.39 1.28 183.84 1.28L183.84 1.28L183.84 1.28Q180.29 1.28 178.08-0.67L178.08-0.67L178.08-0.67Q175.87-2.62 175.87-6.66L175.87-6.66L175.87-6.66Q175.87-11.33 178.43-19.01L178.43-19.01L178.43-19.01Q180.99-26.62 184.83-32.45L184.83-32.45L184.83-32.45Q182.98-32.64 181.06-32.64L181.06-32.64L181.06-32.64Q177.09-32.64 176.45-31.17ZM227.46-10.82L227.46-10.82L227.46-10.82Q229.06-9.73 229.06-7.33L229.06-7.33L229.06-7.33Q229.06-4.93 227.84-3.39L227.84-3.39L227.84-3.39Q226.62-1.86 224.64-0.83L224.64-0.83L224.64-0.83Q220.54 1.28 216.13 1.28L216.13 1.28L216.13 1.28Q211.71 1.28 209.12 0.32L209.12 0.32L209.12 0.32Q206.53-0.64 204.80-2.43L204.80-2.43L204.80-2.43Q201.41-5.82 201.41-12.03L201.41-12.03L201.41-12.03Q201.41-21.70 206.66-27.58L206.66-27.58L206.66-27.58Q212.29-33.92 222.08-33.92L222.08-33.92L222.08-33.92Q228.16-33.92 231.17-31.36L231.17-31.36L231.17-31.36Q233.41-29.44 233.41-26.30L233.41-26.30L233.41-26.30Q233.41-15.04 213.95-15.04L213.95-15.04L213.95-15.04Q213.70-13.38 213.70-11.97L213.70-11.97L213.70-11.97Q213.70-9.02 215.01-7.90L215.01-7.90L215.01-7.90Q216.32-6.78 218.75-6.78L218.75-6.78L218.75-6.78Q221.18-6.78 223.78-7.90L223.78-7.90L223.78-7.90Q226.37-9.02 227.46-10.82ZM214.40-17.79L214.40-17.79L214.40-17.79Q218.94-17.79 221.57-20.61L221.57-20.61L221.57-20.61Q224.19-23.30 224.19-27.58L224.19-27.58L224.19-27.58Q224.19-29.06 223.65-29.86L223.65-29.86L223.65-29.86Q223.10-30.66 222.02-30.66L222.02-30.66L222.02-30.66Q220.93-30.66 220-30.24L220-30.24L220-30.24Q219.07-29.82 218.11-28.42L218.11-28.42L218.11-28.42Q215.74-25.22 214.40-17.79ZM281.66 1.28L281.66 1.28L281.66 1.28Q273.92 1.28 273.92-4.74L273.92-4.74L273.92-4.74Q273.92-7.36 275.04-12.45L275.04-12.45L275.04-12.45Q276.16-17.54 276.54-19.58L276.54-19.58L276.54-19.58Q277.44-24.26 277.44-25.73L277.44-25.73L277.44-25.73Q277.44-28.99 275.01-28.99L275.01-28.99L275.01-28.99Q273.41-28.99 271.87-26.78L271.87-26.78L271.87-26.78Q270.34-24.58 269.63-20.16L269.63-20.16L265.66 0L253.18 1.28L256.64-16.13L256.64-16.13Q257.22-19.01 257.73-22.27L257.73-22.27L257.73-22.27Q258.24-25.54 258.24-26.05L258.24-26.05L258.24-26.05Q258.24-28.99 256.06-28.99L256.06-28.99L256.06-28.99Q254.59-28.99 252.99-26.82L252.99-26.82L252.99-26.82Q251.39-24.64 250.50-20.16L250.50-20.16L246.59 0L233.98 1.28L240.70-32.64L251.14-33.92L250.05-27.46L250.05-27.46Q251.71-30.91 254.78-32.42L254.78-32.42L254.78-32.42Q257.86-33.92 262.66-33.92L262.66-33.92L262.66-33.92Q265.41-33.92 267.20-32.58L267.20-32.58L267.20-32.58Q268.99-31.23 269.57-29.06L269.57-29.06L269.57-29.06Q270.66-31.30 273.44-32.61L273.44-32.61L273.44-32.61Q276.22-33.92 279.65-33.92L279.65-33.92L279.65-33.92Q283.07-33.92 284.77-33.18L284.77-33.18L284.77-33.18Q286.46-32.45 287.49-31.23L287.49-31.23L287.49-31.23Q289.22-28.99 289.22-24.90L289.22-24.90L289.22-24.90Q289.22-20.86 287.49-12.48L287.49-12.48L287.49-12.48Q286.59-8.38 286.59-6.88L286.59-6.88L286.59-6.88Q286.59-5.38 287.46-4.48L287.46-4.48L287.46-4.48Q288.32-3.58 289.60-3.46L289.60-3.46L289.60-3.46Q288.96-1.28 286.75 0L286.75 0L286.75 0Q284.54 1.28 281.66 1.28ZM324.35-4.38L324.35-4.38L324.35-4.38Q321.66-1.66 317.98-0.19L317.98-0.19L317.98-0.19Q314.30 1.28 310.66 1.28L310.66 1.28L310.66 1.28Q307.01 1.28 305.73 0.64L305.73 0.64L303.74 11.52L290.75 12.80L299.58-32.64L310.02-33.73L309.18-29.31L309.18-29.31Q311.87-33.86 317.44-33.86L317.44-33.86L317.44-33.86Q323.71-33.86 327.04-29.82L327.04-29.82L327.04-29.82Q329.98-26.18 329.98-20.61L329.98-20.61L329.98-20.61Q329.98-15.04 328.51-11.07L328.51-11.07L328.51-11.07Q327.04-7.10 324.35-4.38ZM309.89-22.34L306.50-3.58L306.50-3.58Q307.84-2.43 309.50-2.43L309.50-2.43L309.50-2.43Q311.17-2.43 312.13-3.07L312.13-3.07L312.13-3.07Q313.09-3.71 313.79-4.99L313.79-4.99L313.79-4.99Q315.71-8.45 317.25-18.94L317.25-18.94L317.25-18.94Q317.70-22.02 317.70-25.02L317.70-25.02L317.70-25.02Q317.70-28.03 317.02-28.99L317.02-28.99L317.02-28.99Q316.35-29.95 315.07-29.95L315.07-29.95L315.07-29.95Q311.17-29.95 309.89-22.34L309.89-22.34ZM349.12-3.52L349.12-3.52L349.12-3.52Q347.14 1.28 340.80 1.28L340.80 1.28L340.80 1.28Q337.60 1.28 335.55-0.96L335.55-0.96L335.55-0.96Q333.89-2.82 333.89-4.93L333.89-4.93L333.89-4.93Q333.89-9.73 336.13-20.22L336.13-20.22L340.80-44.80L353.79-46.08L347.58-13.70L347.58-13.70Q346.50-8.96 346.50-7.30L346.50-7.30L346.50-7.30Q346.50-3.65 349.12-3.52ZM368.51 1.28L368.51 1.28L368.51 1.28Q354.43 1.28 354.43-11.97L354.43-11.97L354.43-11.97Q354.43-21.38 359.62-27.46L359.62-27.46L359.62-27.46Q365.12-33.92 374.66-33.92L374.66-33.92L374.66-33.92Q381.57-33.92 385.09-30.72L385.09-30.72L385.09-30.72Q388.61-27.52 388.61-20.80L388.61-20.80L388.61-20.80Q388.61-10.56 383.10-4.61L383.10-4.61L383.10-4.61Q377.73 1.28 368.51 1.28ZM370.18-26.56L370.18-26.56L370.18-26.56Q369.41-24.83 368.80-22.24L368.80-22.24L368.80-22.24Q368.19-19.65 367.42-15.55L367.42-15.55L367.42-15.55Q366.66-11.46 366.66-6.40L366.66-6.40L366.66-6.40Q366.66-4.74 367.20-3.65L367.20-3.65L367.20-3.65Q367.74-2.56 369.22-2.56L369.22-2.56L369.22-2.56Q370.69-2.56 371.62-3.26L371.62-3.26L371.62-3.26Q372.54-3.97 373.25-5.63L373.25-5.63L373.25-5.63Q374.53-8.58 375.55-14.05L375.55-14.05L375.55-14.05Q376.58-19.52 376.67-21.89L376.67-21.89L376.67-21.89Q376.77-24.26 376.77-26.02L376.77-26.02L376.77-26.02Q376.77-27.78 376.26-28.93L376.26-28.93L376.26-28.93Q375.74-30.08 374.30-30.08L374.30-30.08L374.30-30.08Q372.86-30.08 371.90-29.18L371.90-29.18L371.90-29.18Q370.94-28.29 370.18-26.56Z" fill="url(#editing-rainbow-gradient)"></path></g></g><style>text {
  font-size: 64px;
  font-family: Arial Black;
  dominant-baseline: central;
  text-anchor: middle;
}</style></svg>